<svg width="180" height="180" viewBox="0 0 180 180" fill="none" xmlns="http://www.w3.org/2000/svg">
<rect width="180" height="180" fill="#4B505D"/>
<path d="M68.02 89.006C67.732 89.762 67.48 90.536 67.264 91.328C67.048 92.084 66.904 92.84 66.832 93.596C63.916 95.072 60.244 95.81 55.816 95.81C52.684 95.81 49.876 95.378 47.392 94.514C44.944 93.614 42.856 92.372 41.128 90.788C39.436 89.168 38.14 87.26 37.24 85.064C36.34 82.868 35.89 80.492 35.89 77.936C35.89 74.192 36.466 71.024 37.618 68.432C38.806 65.804 40.372 63.68 42.316 62.06C44.296 60.404 46.582 59.198 49.174 58.442C51.766 57.686 54.484 57.308 57.328 57.308C58.264 57.308 59.254 57.38 60.298 57.524C61.342 57.668 62.35 57.866 63.322 58.118C64.294 58.334 65.212 58.604 66.076 58.928C66.976 59.252 67.732 59.594 68.344 59.954C67.984 60.854 67.696 61.772 67.48 62.708C67.3 63.608 67.174 64.526 67.102 65.462H66.346C64.978 63.734 63.574 62.51 62.134 61.79C60.694 61.034 59.002 60.656 57.058 60.656C55.618 60.656 54.16 60.98 52.684 61.628C51.244 62.276 49.93 63.266 48.742 64.598C47.554 65.93 46.582 67.64 45.826 69.728C45.106 71.78 44.746 74.246 44.746 77.126C44.746 79.898 45.124 82.274 45.88 84.254C46.636 86.198 47.608 87.8 48.796 89.06C50.02 90.284 51.388 91.184 52.9 91.76C54.448 92.336 55.996 92.624 57.544 92.624C58.408 92.624 59.29 92.534 60.19 92.354C61.09 92.138 61.972 91.868 62.836 91.544C63.7 91.184 64.51 90.752 65.266 90.248C66.058 89.744 66.742 89.186 67.318 88.574L68.02 89.006ZM83.7378 68.162C82.8018 70.322 81.9198 72.464 81.0918 74.588C80.2638 76.676 79.4538 78.818 78.6618 81.014H88.5438C87.7518 78.818 86.9598 76.676 86.1678 74.588C85.4118 72.464 84.6018 70.322 83.7378 68.162ZM102.854 95.108C101.99 95.036 101.162 95 100.37 95C99.6138 95 98.8578 95 98.1018 95C97.3458 95 96.5718 95 95.7798 95C95.0238 95 94.2678 95.036 93.5118 95.108C92.9358 93.344 92.3418 91.544 91.7298 89.708C91.1178 87.872 90.4698 86.036 89.7858 84.2C88.6338 84.164 87.4818 84.146 86.3298 84.146C85.1778 84.11 84.0258 84.092 82.8738 84.092C81.9378 84.092 81.0018 84.11 80.0658 84.146C79.1298 84.146 78.1938 84.164 77.2578 84.2C76.5378 86.036 75.8718 87.872 75.2598 89.708C74.6478 91.544 74.0898 93.344 73.5858 95.108C73.1538 95.036 72.7218 95 72.2898 95C71.8938 95 71.4798 95 71.0478 95C70.6158 95 70.1838 95 69.7518 95C69.3198 95 68.8518 95.036 68.3478 95.108C68.7798 94.172 69.3558 92.876 70.0758 91.22C70.7958 89.564 71.5878 87.692 72.4518 85.604C73.3158 83.516 74.2338 81.284 75.2058 78.908C76.2138 76.496 77.2038 74.066 78.1758 71.618C79.1838 69.17 80.1558 66.758 81.0918 64.382C82.0638 62.006 82.9458 59.792 83.7378 57.74C84.0978 57.812 84.4398 57.884 84.7638 57.956C85.0878 57.992 85.4298 58.01 85.7898 58.01C86.1498 58.01 86.4918 57.992 86.8158 57.956C87.1398 57.884 87.4818 57.812 87.8418 57.74C88.9938 60.8 90.2178 64.076 91.5138 67.568C92.8458 71.06 94.1778 74.498 95.5098 77.882C96.8418 81.23 98.1378 84.416 99.3978 87.44C100.658 90.464 101.81 93.02 102.854 95.108ZM108.901 68.756C108.901 66.272 108.865 64.184 108.793 62.492C108.721 60.8 108.667 59.306 108.631 58.01C109.639 58.19 110.449 58.28 111.061 58.28C111.673 58.28 112.483 58.19 113.491 58.01C117.415 62.366 121.285 66.65 125.101 70.862C128.953 75.074 132.895 79.358 136.927 83.714V79.016V73.778C136.927 72.014 136.909 70.286 136.873 68.594C136.873 66.866 136.855 65.282 136.819 63.842C136.819 62.402 136.783 61.16 136.711 60.116C136.675 59.072 136.621 58.37 136.549 58.01C137.557 58.19 138.367 58.28 138.979 58.28C139.591 58.28 140.401 58.19 141.409 58.01C141.229 61.286 141.085 64.256 140.977 66.92C140.869 69.548 140.779 72.032 140.707 74.372C140.635 76.712 140.581 79.034 140.545 81.338C140.545 83.606 140.545 86.036 140.545 88.628V95.108C139.825 95.036 139.087 95 138.331 95C137.539 95 136.837 95.036 136.225 95.108C128.809 86.468 120.943 77.774 112.627 69.026C112.591 70.07 112.555 71.114 112.519 72.158C112.519 73.202 112.519 74.264 112.519 75.344V81.608C112.519 83.768 112.519 85.604 112.519 87.116C112.555 88.628 112.591 89.906 112.627 90.95C112.663 91.994 112.699 92.858 112.735 93.542C112.771 94.19 112.807 94.712 112.843 95.108C112.411 95.036 111.979 95 111.547 95C111.115 95 110.701 95 110.305 95C109.477 95 108.649 95.036 107.821 95.108C107.893 94.82 107.983 93.794 108.091 92.03C108.199 90.266 108.307 88.124 108.415 85.604C108.559 83.048 108.667 80.294 108.739 77.342C108.847 74.354 108.901 71.492 108.901 68.756Z" fill="#F0A500"/>
<path d="M44.382 118.966C44.8327 118.966 45.3007 118.975 45.786 118.992C46.2713 119.009 46.7393 119.018 47.19 119.018C47.6753 119.018 48.1607 119.018 48.646 119.018C49.1313 119.001 49.6167 118.983 50.102 118.966L47.216 112.362L44.382 118.966ZM55.9 127.052C55.6573 127.017 55.4233 127 55.198 127C54.99 127 54.7647 127 54.522 127C54.2793 127 54.0453 127 53.82 127C53.612 127 53.3867 127.017 53.144 127.052C53.0227 126.653 52.858 126.177 52.65 125.622C52.442 125.05 52.208 124.461 51.948 123.854C51.7053 123.23 51.454 122.606 51.194 121.982C50.934 121.341 50.6913 120.734 50.466 120.162C49.9113 120.145 49.348 120.136 48.776 120.136C48.204 120.119 47.632 120.11 47.06 120.11C46.5227 120.11 45.994 120.119 45.474 120.136C44.954 120.136 44.4253 120.145 43.888 120.162C43.3333 121.514 42.8307 122.805 42.38 124.036C41.9293 125.249 41.5913 126.255 41.366 127.052C41.0713 127.017 40.7507 127 40.404 127C40.0573 127 39.7367 127.017 39.442 127.052C40.846 124.019 42.2153 121.003 43.55 118.004C44.8847 115.005 46.228 111.955 47.58 108.852H48.074C48.49 109.857 48.9407 110.949 49.426 112.128C49.9113 113.289 50.4053 114.468 50.908 115.664C51.4107 116.86 51.9133 118.047 52.416 119.226C52.9187 120.405 53.3867 121.505 53.82 122.528C54.2707 123.533 54.6693 124.435 55.016 125.232C55.38 126.029 55.6747 126.636 55.9 127.052ZM72.6198 112.362C72.3598 112.05 72.0305 111.738 71.6318 111.426C71.2505 111.114 70.8172 110.845 70.3318 110.62C69.8638 110.377 69.3352 110.187 68.7458 110.048C68.1738 109.892 67.5585 109.814 66.8998 109.814C65.8252 109.814 64.8198 109.979 63.8838 110.308C62.9652 110.637 62.1592 111.149 61.4658 111.842C60.7898 112.518 60.2525 113.385 59.8538 114.442C59.4725 115.482 59.2818 116.721 59.2818 118.16C59.2818 119.425 59.4552 120.569 59.8018 121.592C60.1485 122.615 60.6512 123.481 61.3098 124.192C61.9858 124.885 62.8005 125.423 63.7538 125.804C64.7245 126.185 65.8165 126.376 67.0298 126.376C67.3938 126.376 67.7752 126.359 68.1738 126.324C68.5725 126.289 68.9538 126.237 69.3178 126.168C69.6992 126.099 70.0458 126.012 70.3578 125.908C70.6872 125.804 70.9645 125.683 71.1898 125.544C71.2072 125.024 71.2158 124.504 71.2158 123.984C71.2332 123.464 71.2418 122.935 71.2418 122.398C71.2418 121.791 71.2245 121.185 71.1898 120.578C71.1725 119.971 71.1465 119.391 71.1118 118.836C71.5452 118.923 71.9612 118.966 72.3598 118.966C72.5505 118.966 72.7412 118.957 72.9318 118.94C73.1225 118.923 73.3045 118.888 73.4778 118.836C73.4432 119.235 73.4172 119.867 73.3998 120.734C73.3825 121.583 73.3738 122.71 73.3738 124.114C73.3738 124.461 73.3738 124.816 73.3738 125.18C73.3912 125.527 73.3998 125.873 73.3998 126.22C73.0358 126.359 72.5765 126.506 72.0218 126.662C71.4845 126.801 70.9038 126.913 70.2798 127C69.6732 127.104 69.0578 127.191 68.4338 127.26C67.8272 127.347 67.2725 127.39 66.7698 127.39C65.2272 127.39 63.8318 127.208 62.5838 126.844C61.3532 126.463 60.3045 125.882 59.4378 125.102C58.5712 124.322 57.9038 123.351 57.4358 122.19C56.9678 121.029 56.7338 119.685 56.7338 118.16C56.7338 116.687 56.9765 115.378 57.4618 114.234C57.9472 113.073 58.6318 112.093 59.5158 111.296C60.3998 110.499 61.4658 109.892 62.7138 109.476C63.9792 109.06 65.3745 108.852 66.8998 108.852C67.7838 108.852 68.5638 108.904 69.2398 109.008C69.9332 109.095 70.5398 109.216 71.0598 109.372C71.5972 109.528 72.0652 109.693 72.4638 109.866C72.8625 110.039 73.2178 110.204 73.5298 110.36C73.3912 110.603 73.2612 110.915 73.1398 111.296C73.0358 111.677 72.9665 112.033 72.9318 112.362H72.6198ZM77.9582 115.924C77.9582 114.78 77.9322 113.662 77.8802 112.57C77.8455 111.461 77.8022 110.334 77.7502 109.19C78.2528 109.225 78.7468 109.259 79.2322 109.294C79.7175 109.311 80.2115 109.32 80.7142 109.32C81.2168 109.32 81.7108 109.303 82.1962 109.268C82.6815 109.216 83.1755 109.19 83.6782 109.19C84.4062 109.19 85.0995 109.259 85.7582 109.398C86.4168 109.537 86.9888 109.771 87.4742 110.1C87.9768 110.412 88.3668 110.828 88.6442 111.348C88.9388 111.868 89.0862 112.518 89.0862 113.298C89.0862 114.13 88.8955 114.849 88.5142 115.456C88.1502 116.045 87.6995 116.539 87.1622 116.938C86.6248 117.319 86.0442 117.623 85.4202 117.848C84.8135 118.056 84.2588 118.195 83.7562 118.264C83.9642 118.524 84.2502 118.888 84.6142 119.356C84.9782 119.824 85.3855 120.344 85.8362 120.916C86.2868 121.471 86.7548 122.06 87.2402 122.684C87.7255 123.291 88.1935 123.88 88.6442 124.452C89.0948 125.007 89.5195 125.518 89.9182 125.986C90.3168 126.454 90.6375 126.809 90.8802 127.052C90.6202 127.017 90.3602 127 90.1002 127C89.8402 127 89.5802 127 89.3202 127C89.0775 127 88.8262 127 88.5662 127C88.3062 127 88.0548 127.017 87.8122 127.052C87.5522 126.688 87.1535 126.142 86.6162 125.414C86.0962 124.686 85.5155 123.906 84.8742 123.074C84.2328 122.242 83.5742 121.419 82.8982 120.604C82.2395 119.772 81.6328 119.07 81.0782 118.498H80.0902V120.396C80.0902 121.54 80.1075 122.667 80.1422 123.776C80.1942 124.885 80.2462 125.977 80.2982 127.052C79.8995 127.017 79.4748 127 79.0242 127C78.5735 127 78.1488 127.017 77.7502 127.052C77.8022 125.977 77.8455 124.885 77.8802 123.776C77.9322 122.667 77.9582 121.54 77.9582 120.396V115.924ZM80.0902 117.406C80.3328 117.458 80.5928 117.493 80.8702 117.51C81.1648 117.527 81.4855 117.536 81.8322 117.536C82.3695 117.536 82.9242 117.475 83.4962 117.354C84.0855 117.233 84.6228 117.025 85.1082 116.73C85.5935 116.418 85.9922 116.011 86.3042 115.508C86.6335 114.988 86.7982 114.338 86.7982 113.558C86.7982 112.882 86.6682 112.327 86.4082 111.894C86.1655 111.443 85.8448 111.088 85.4462 110.828C85.0475 110.568 84.6142 110.395 84.1462 110.308C83.6782 110.204 83.2188 110.152 82.7682 110.152C82.1615 110.152 81.6588 110.169 81.2602 110.204C80.8615 110.221 80.5235 110.247 80.2462 110.282C80.2115 111.235 80.1768 112.18 80.1422 113.116C80.1075 114.052 80.0902 114.988 80.0902 115.924V117.406ZM93.8527 115.898C93.8527 114.754 93.8267 113.627 93.7747 112.518C93.74 111.409 93.6967 110.299 93.6447 109.19C94.4247 109.225 95.196 109.259 95.9587 109.294C96.7387 109.311 97.5187 109.32 98.2987 109.32C99.0787 109.32 99.85 109.311 100.613 109.294C101.375 109.259 102.147 109.225 102.927 109.19C102.875 109.45 102.849 109.71 102.849 109.97C102.849 110.23 102.875 110.49 102.927 110.75C102.372 110.715 101.861 110.681 101.393 110.646C100.942 110.611 100.457 110.577 99.9367 110.542C99.434 110.507 98.8794 110.481 98.2727 110.464C97.666 110.429 96.938 110.412 96.0887 110.412C96.0714 110.967 96.0454 111.495 96.0107 111.998C95.9934 112.501 95.9847 113.073 95.9847 113.714C95.9847 114.39 95.9847 115.049 95.9847 115.69C96.002 116.331 96.0107 116.817 96.0107 117.146C96.7734 117.146 97.458 117.137 98.0647 117.12C98.6714 117.103 99.226 117.085 99.7287 117.068C100.231 117.033 100.691 117.007 101.107 116.99C101.54 116.955 101.947 116.921 102.329 116.886C102.277 117.146 102.251 117.415 102.251 117.692C102.251 117.952 102.277 118.212 102.329 118.472C101.878 118.42 101.349 118.377 100.743 118.342C100.153 118.307 99.5554 118.29 98.9487 118.29C98.3594 118.273 97.796 118.264 97.2587 118.264C96.7387 118.247 96.3227 118.238 96.0107 118.238C96.0107 118.394 96.002 118.567 95.9847 118.758C95.9847 118.931 95.9847 119.157 95.9847 119.434V120.448V122.008C95.9847 122.996 95.9847 123.811 95.9847 124.452C96.002 125.093 96.0194 125.579 96.0367 125.908C96.6087 125.908 97.2154 125.908 97.8567 125.908C98.5154 125.908 99.1567 125.899 99.7807 125.882C100.422 125.847 101.02 125.813 101.575 125.778C102.147 125.726 102.641 125.657 103.057 125.57C103.022 125.691 102.996 125.83 102.979 125.986C102.979 126.125 102.979 126.255 102.979 126.376C102.979 126.653 103.005 126.879 103.057 127.052C102.277 127.017 101.497 127 100.717 127C99.954 127 99.174 127 98.3767 127C97.5794 127 96.7907 127 96.0107 127C95.2307 127 94.442 127.017 93.6447 127.052C93.6967 125.943 93.74 124.842 93.7747 123.75C93.8267 122.641 93.8527 121.514 93.8527 120.37V115.898ZM121.751 112.362C121.491 112.05 121.161 111.738 120.763 111.426C120.381 111.114 119.948 110.845 119.463 110.62C118.995 110.377 118.466 110.187 117.877 110.048C117.305 109.892 116.689 109.814 116.031 109.814C114.956 109.814 113.951 109.979 113.015 110.308C112.096 110.637 111.29 111.149 110.597 111.842C109.921 112.518 109.383 113.385 108.985 114.442C108.603 115.482 108.413 116.721 108.413 118.16C108.413 119.425 108.586 120.569 108.933 121.592C109.279 122.615 109.782 123.481 110.441 124.192C111.117 124.885 111.931 125.423 112.885 125.804C113.855 126.185 114.947 126.376 116.161 126.376C116.525 126.376 116.906 126.359 117.305 126.324C117.703 126.289 118.085 126.237 118.449 126.168C118.83 126.099 119.177 126.012 119.489 125.908C119.818 125.804 120.095 125.683 120.321 125.544C120.338 125.024 120.347 124.504 120.347 123.984C120.364 123.464 120.373 122.935 120.373 122.398C120.373 121.791 120.355 121.185 120.321 120.578C120.303 119.971 120.277 119.391 120.243 118.836C120.676 118.923 121.092 118.966 121.491 118.966C121.681 118.966 121.872 118.957 122.063 118.94C122.253 118.923 122.435 118.888 122.609 118.836C122.574 119.235 122.548 119.867 122.531 120.734C122.513 121.583 122.505 122.71 122.505 124.114C122.505 124.461 122.505 124.816 122.505 125.18C122.522 125.527 122.531 125.873 122.531 126.22C122.167 126.359 121.707 126.506 121.153 126.662C120.615 126.801 120.035 126.913 119.411 127C118.804 127.104 118.189 127.191 117.565 127.26C116.958 127.347 116.403 127.39 115.901 127.39C114.358 127.39 112.963 127.208 111.715 126.844C110.484 126.463 109.435 125.882 108.569 125.102C107.702 124.322 107.035 123.351 106.567 122.19C106.099 121.029 105.865 119.685 105.865 118.16C105.865 116.687 106.107 115.378 106.593 114.234C107.078 113.073 107.763 112.093 108.647 111.296C109.531 110.499 110.597 109.892 111.845 109.476C113.11 109.06 114.505 108.852 116.031 108.852C116.915 108.852 117.695 108.904 118.371 109.008C119.064 109.095 119.671 109.216 120.191 109.372C120.728 109.528 121.196 109.693 121.595 109.866C121.993 110.039 122.349 110.204 122.661 110.36C122.522 110.603 122.392 110.915 122.271 111.296C122.167 111.677 122.097 112.033 122.063 112.362H121.751ZM129.923 118.966C130.374 118.966 130.842 118.975 131.327 118.992C131.812 119.009 132.28 119.018 132.731 119.018C133.216 119.018 133.702 119.018 134.187 119.018C134.672 119.001 135.158 118.983 135.643 118.966L132.757 112.362L129.923 118.966ZM141.441 127.052C141.198 127.017 140.964 127 140.739 127C140.531 127 140.306 127 140.063 127C139.82 127 139.586 127 139.361 127C139.153 127 138.928 127.017 138.685 127.052C138.564 126.653 138.399 126.177 138.191 125.622C137.983 125.05 137.749 124.461 137.489 123.854C137.246 123.23 136.995 122.606 136.735 121.982C136.475 121.341 136.232 120.734 136.007 120.162C135.452 120.145 134.889 120.136 134.317 120.136C133.745 120.119 133.173 120.11 132.601 120.11C132.064 120.11 131.535 120.119 131.015 120.136C130.495 120.136 129.966 120.145 129.429 120.162C128.874 121.514 128.372 122.805 127.921 124.036C127.47 125.249 127.132 126.255 126.907 127.052C126.612 127.017 126.292 127 125.945 127C125.598 127 125.278 127.017 124.983 127.052C126.387 124.019 127.756 121.003 129.091 118.004C130.426 115.005 131.769 111.955 133.121 108.852H133.615C134.031 109.857 134.482 110.949 134.967 112.128C135.452 113.289 135.946 114.468 136.449 115.664C136.952 116.86 137.454 118.047 137.957 119.226C138.46 120.405 138.928 121.505 139.361 122.528C139.812 123.533 140.21 124.435 140.557 125.232C140.921 126.029 141.216 126.636 141.441 127.052Z" fill="#F0A500"/>
</svg>
